<svg width="539" height="83" viewBox="0 0 539 83" fill="none" xmlns="http://www.w3.org/2000/svg">
<path d="M163.51 25.0938C166.24 25.0938 168.469 25.8125 170.198 27.2448C171.922 28.6771 173.042 30.2709 173.568 32.0261L188.995 27.4375C187.63 23.9271 185.786 20.9948 183.479 18.6511C181.167 16.3073 178.38 14.5313 175.13 13.3282C171.87 12.125 168.062 11.5209 163.703 11.5209C155.76 11.5209 149.609 13.3594 145.245 17.0365C140.88 20.7188 138.703 25.8438 138.703 32.4219C138.703 35.8073 139.401 38.8177 140.802 41.4532C142.203 44.0886 144.151 46.3177 146.661 48.1459C149.167 49.9636 152.115 51.3021 155.5 52.1459L165.167 54.5886C167.51 55.2396 169.318 56.1875 170.589 57.4219C171.859 58.6563 172.49 60.0886 172.49 61.7136C172.49 63.8021 171.599 65.4948 169.807 66.7917C168.016 68.099 165.786 68.7136 163.12 68.6511C160.38 68.5834 158.12 67.8542 156.328 66.4532C154.536 65.0521 153.286 63.4115 152.573 61.5209L137.042 65.9167C137.432 68.1303 138.411 70.198 139.974 72.1198C141.531 74.0365 143.536 75.7657 145.979 77.2917C148.422 78.823 151.151 80.0261 154.182 80.9063C157.208 81.7865 160.38 82.224 163.703 82.224C169.036 82.224 173.599 81.3959 177.375 79.7344C181.146 78.073 184.031 75.7136 186.016 72.6511C188.005 69.5938 188.995 65.9167 188.995 61.6198C188.995 56.8646 187.448 52.6198 184.359 48.875C181.266 45.1302 176.948 42.573 171.417 41.2084L161.75 38.7657C159.599 38.2448 157.906 37.448 156.672 36.375C155.432 35.3021 154.818 33.9532 154.818 32.323C154.818 29.9792 155.578 28.1875 157.109 26.9532C158.641 25.7136 160.771 25.0938 163.51 25.0938Z" fill="white"/>
<path d="M229.964 62.6459C229.083 64.3698 227.896 65.7188 226.396 66.698C224.901 67.6719 223.141 68.1615 221.125 68.1615C219.036 68.1615 217.198 67.6719 215.604 66.698C214.01 65.7188 212.776 64.3698 211.896 62.6459C211.016 60.9167 210.578 58.9167 210.578 56.6407C210.578 54.3594 211.016 52.3594 211.896 50.6355C212.776 48.9063 213.995 47.5573 215.557 46.5782C217.12 45.6042 218.911 45.1146 220.927 45.1146C222.943 45.1146 224.734 45.6042 226.297 46.5782C227.865 47.5573 229.083 48.9063 229.964 50.6355C230.839 52.3594 231.281 54.3594 231.281 56.6407C231.281 58.9167 230.839 60.9167 229.964 62.6459ZM234.453 34.323C230.51 32.1459 226.005 31.0521 220.927 31.0521C215.849 31.0521 211.359 32.1459 207.453 34.323C203.547 36.5052 200.484 39.5157 198.271 43.3542C196.063 47.198 194.953 51.625 194.953 56.6407C194.953 61.6511 196.078 66.0782 198.318 69.9219C200.568 73.7605 203.641 76.7709 207.547 78.9532C211.458 81.1302 215.979 82.224 221.125 82.224C226.135 82.224 230.594 81.1302 234.505 78.9532C238.406 76.7709 241.453 73.7605 243.635 69.9219C245.813 66.0782 246.906 61.6511 246.906 56.6407C246.906 51.625 245.813 47.198 243.635 43.3542C241.453 39.5157 238.391 36.5052 234.453 34.323Z" fill="white"/>
<path d="M254.323 81.0521H269.557V12.6927H254.323V81.0521Z" fill="white"/>
<path d="M306.813 66.2084C306 67.573 304.896 68.6667 303.495 69.4792C302.094 70.2969 300.453 70.7032 298.563 70.7032C296.615 70.7032 295.109 70.3594 294.073 69.6719C293.031 68.9896 292.51 68.0625 292.51 66.8907C292.51 65.2657 293.208 64.0105 294.609 63.1302C296.01 62.2552 298.37 61.8125 301.688 61.8125H308.036C308.036 63.375 307.63 64.8438 306.813 66.2084ZM312.432 33.8855C308.917 31.9948 304.62 31.0521 299.542 31.0521C295.828 31.0521 292.557 31.6355 289.724 32.8073C286.896 33.9792 284.531 35.5469 282.646 37.4948C280.755 39.4532 279.229 41.6302 278.057 44.0417L291.432 48.4323C292.411 47.0052 293.568 45.8646 294.901 45.0157C296.234 44.1719 297.849 43.7448 299.734 43.7448C302.078 43.7448 303.839 44.2865 305.01 45.3594C306.182 46.4323 306.979 47.948 307.401 49.9011C307.542 50.5625 307.63 51.3125 307.724 52.0469H295.927C289.937 52.0469 285.281 53.3021 281.964 55.8073C278.641 58.3177 276.984 62.1407 276.984 67.2813C276.984 72.0365 278.573 75.7136 281.766 78.3178C284.958 80.9219 289.448 82.224 295.245 82.224C300.906 82.224 305.104 80.4323 307.844 76.8542C308.016 76.625 308.135 76.3438 308.297 76.1042L308.526 81.0521H322.786L322.974 53.8073C322.974 49.1875 322.094 45.1823 320.349 41.7969C318.583 38.4115 315.948 35.7709 312.432 33.8855Z" fill="white"/>
<path d="M347.495 41.3595V32.224H332.255V81.0522H347.495V55.9532C347.495 53.8751 348.307 52.1615 349.932 50.8282C351.563 49.4949 353.693 48.5053 356.318 47.849C358.958 47.198 361.771 46.8751 364.771 46.8751V32.0261C361.255 32.0261 357.896 32.9063 354.667 34.6667C351.839 36.2084 349.469 38.4636 347.495 41.3595Z" fill="white"/>
<path d="M382.745 39.9844C384.438 38.7188 386.771 38.0834 389.771 38.0834C392.573 38.0834 394.948 38.573 396.906 39.5469C398.854 40.5261 400.255 42.1198 401.104 44.3334L407.932 41.3073C407.162 39.224 405.922 37.4167 404.229 35.8855C402.531 34.3594 400.521 33.1667 398.172 32.323C395.828 31.4792 393.229 31.0521 390.359 31.0521C384.375 31.0521 379.865 32.3386 376.839 34.9115C373.802 37.4792 372.292 41.0782 372.292 45.698C372.292 48.698 373.531 51.3802 376 53.7552C378.479 56.1355 381.932 57.9063 386.359 59.0782L391.042 60.349C394.042 61.1302 396.292 62.1407 397.828 63.375C399.359 64.6146 400.12 66.2448 400.12 68.2605C400.12 70.474 399.078 72.1823 397 73.3855C394.922 74.5938 392.349 75.1928 389.281 75.1928C386.615 75.1928 384.172 74.5105 381.958 73.1407C379.745 71.7761 378.094 69.9844 376.984 67.7709L370.146 70.6042C370.922 72.6875 372.214 74.6042 374 76.3646C375.786 78.1198 378.026 79.5365 380.693 80.6146C383.359 81.6875 386.479 82.224 390.068 82.224C393.521 82.224 396.573 81.6511 399.24 80.5157C401.922 79.375 404.026 77.7344 405.589 75.5834C407.162 73.4323 407.932 70.8959 407.932 67.9636C407.932 65.7553 407.385 63.6719 406.281 61.7136C405.172 59.7657 403.547 58.0209 401.401 56.4896C399.24 54.9636 396.573 53.8073 393.385 53.0261L388.505 51.7552C385.771 51.0365 383.708 50.1146 382.307 48.974C380.906 47.8334 380.198 46.6146 380.198 45.3073C380.198 43.0313 381.052 41.2552 382.745 39.9844Z" fill="white"/>
<path d="M454.281 66.1615C452.88 68.9271 450.958 71.0938 448.505 72.6511C446.068 74.2136 443.255 74.9948 440.068 74.9948C436.88 74.9948 434.026 74.2136 431.521 72.6511C429.016 71.0938 427.068 68.9271 425.667 66.1615C424.266 63.3959 423.562 60.2188 423.562 56.6407C423.562 52.9948 424.266 49.8021 425.667 47.0677C427.068 44.3334 428.984 42.1823 431.427 40.625C433.865 39.0625 436.682 38.2813 439.865 38.2813C443.12 38.2813 445.984 39.0625 448.469 40.625C450.932 42.1823 452.88 44.349 454.281 47.1146C455.682 49.8855 456.375 53.0573 456.375 56.6407C456.375 60.2188 455.682 63.3959 454.281 66.1615ZM452.615 34.323C448.932 32.1459 444.719 31.0521 439.974 31.0521C435.214 31.0521 431 32.1459 427.318 34.323C423.641 36.5052 420.771 39.5157 418.734 43.3594C416.682 47.198 415.651 51.625 415.651 56.6407C415.651 61.6511 416.693 66.0782 418.771 69.9167C420.854 73.7605 423.734 76.7709 427.411 78.9532C431.094 81.1302 435.349 82.224 440.161 82.224C444.854 82.224 449.016 81.1302 452.667 78.9532C456.307 76.7709 459.161 73.7605 461.214 69.9167C463.255 66.0782 464.281 61.6511 464.281 56.6407C464.281 51.625 463.255 47.198 461.214 43.3594C459.161 39.5157 456.292 36.5052 452.615 34.323Z" fill="white"/>
<path d="M489.531 20.4583C490.667 18.9896 492.375 18.2604 494.651 18.2604C495.375 18.2604 496.255 18.4219 497.292 18.7448C498.333 19.0729 499.599 19.526 501.104 20.1146L504.026 13.9635C502.198 13.1198 500.479 12.4688 498.854 12.0104C497.229 11.5521 495.76 11.3281 494.453 11.3281C489.573 11.3281 485.948 12.6146 483.573 15.1823C481.187 17.7552 480 21.5781 480 26.6563V32.224H471.026V38.9635H480V81.0521H487.812V38.9635H501.974V32.224H487.812V27.2448C487.812 24.1875 488.385 21.9219 489.531 20.4583Z" fill="white"/>
<path d="M535.281 72.948C534.042 73.8594 533.042 74.4271 532.292 74.6563C531.547 74.8855 530.786 74.9948 530 74.9948C527.599 74.9948 525.719 74.3282 524.385 72.9948C523.052 71.6615 522.385 69.7552 522.385 67.2813V39.1563H537.042V32.224H522.385V16.9896H514.573V32.224H506.078V39.1563H514.573V68.0625C514.573 72.5521 515.88 76.0365 518.479 78.5105C521.078 80.9844 524.76 82.224 529.521 82.224C530.948 82.224 532.349 82.0105 533.719 81.5886C535.078 81.1615 536.615 80.4011 538.307 79.2917" fill="white"/>
<path d="M101.037 41.3646C101.047 33.5938 99.5834 26.0104 94.5469 19.8229C88.8021 12.7656 79.4896 10.099 71.099 11.9219C66.5938 12.901 62.3542 15.1771 59.073 18.7604C57.8386 20.1146 56.7396 21.5885 55.7813 23.1458C52.8021 28.0052 51.3438 33.4531 49.8334 38.8854C48.9636 42.0156 48.2969 45.2865 46.7032 48.1458C45.6302 50.0729 44.125 51.8021 42.1875 52.8542C37.3021 55.4948 31.5573 52.5104 29.7657 47.5469C29.0469 45.5417 28.8802 43.4219 28.823 41.3021H41.6355V0.4375H0.770874V41.3021H13.5313C13.5105 44.7083 13.75 48.1563 14.5521 51.3594C15.4532 54.901 17.0157 58.2813 19.1563 61.25C21.2188 64.1198 23.7917 66.5156 26.9584 68.1302C33.7552 71.599 42.4375 72.0365 49.3021 68.4479C55.5938 65.1563 59.8542 58.7344 62.1875 52.1927C62.3855 51.6406 62.573 51.0781 62.7448 50.5156C63.6198 47.651 64.3803 44.7448 65.1667 41.8594C66.1823 38.2031 67.2292 34.2396 69.8178 31.3438C71.6667 29.276 73.9115 28.276 76.5469 28.3438C79.6355 28.4271 82.5573 30.2813 84.1042 32.9323C85.5782 35.4583 85.7396 38.4688 85.7865 41.3646H72.9375V82.2292H113.802V41.3646" fill="white"/>
</svg>
