<svg width="512" height="512" viewBox="0 0 512 512" fill="none" xmlns="http://www.w3.org/2000/svg">
<path d="M454.175 256.141C454.222 221.01 447.593 186.725 424.779 158.752C398.757 126.846 356.574 114.79 318.567 123.032C298.159 127.458 278.955 137.748 264.092 153.948C258.501 160.071 253.523 166.734 249.182 173.775C235.687 195.744 229.081 220.374 222.239 244.933C218.3 259.085 215.28 273.872 208.06 286.799C203.2 295.511 196.382 303.329 187.606 308.085C165.476 320.024 139.454 306.531 131.338 284.091C128.083 275.026 127.328 265.442 127.068 255.859H185.105V71.1111H0V255.859H57.8011C57.7068 271.258 58.792 286.846 62.4252 301.327C66.5067 317.339 73.5844 332.621 83.2808 346.043C92.6234 359.017 104.278 369.848 118.622 377.148C149.41 392.83 188.738 394.808 219.833 378.584C248.332 363.703 267.631 334.67 278.2 305.095C279.097 302.599 279.946 300.056 280.725 297.513C284.688 284.562 288.133 271.423 291.695 258.378C296.296 241.848 301.038 223.929 312.763 210.837C321.138 201.489 331.307 196.968 343.244 197.274C357.235 197.651 370.47 206.034 377.477 218.019C384.153 229.439 384.885 243.049 385.097 256.141H326.895V440.889H512V256.141" fill="#141B4D"/>
</svg>
