<svg width="256" height="256" viewBox="0 0 256 256" fill="none" xmlns="http://www.w3.org/2000/svg">
<style>
  path.favicon { fill: #141c4c }
  @media (prefers-color-scheme: dark) {
    path.favicon { fill: white }
  }
</style>
<path class="favicon" d="M227.088 128.071C227.111 110.505 223.797 93.3628 212.39 79.376C199.378 63.4231 178.287 57.3951 159.283 61.5158C149.08 63.7292 139.478 68.8742 132.046 76.9742C129.25 80.0353 126.761 83.3672 124.591 86.8874C117.844 97.872 114.541 110.187 111.12 122.467C109.15 129.542 107.64 136.936 104.03 143.4C101.6 147.756 98.1911 151.664 93.803 154.043C82.7382 160.012 69.727 153.266 65.6692 142.046C64.0413 137.513 63.6638 132.721 63.5341 127.929H92.5526V35.5555H0V127.929H28.9006C28.8534 135.629 29.396 143.423 31.2126 150.664C33.2533 158.67 36.7922 166.311 41.6404 173.021C46.3117 179.508 52.139 184.924 59.311 188.574C74.705 196.415 94.3692 197.404 109.917 189.292C124.166 181.851 133.815 167.335 139.1 152.547C139.548 151.299 139.973 150.028 140.362 148.756C142.344 142.281 144.066 135.712 145.848 129.189C148.148 120.924 150.519 111.965 156.382 105.419C160.569 100.745 165.653 98.4842 171.622 98.6372C178.617 98.8256 185.235 103.017 188.738 109.01C192.077 114.72 192.442 121.525 192.549 128.071H163.447V220.444H256V128.071" />
</svg>
